<svg height="512" viewBox="0 0 64 64" width="512" xmlns="http://www.w3.org/2000/svg" xmlns:xlink="http://www.w3.org/1999/xlink"><linearGradient id="New_Gradient_Swatch_3" gradientUnits="userSpaceOnUse" x1="33.14" x2="30.888" y1="65.074" y2="-.248"><stop offset="0" stop-color="#006df0"/><stop offset="1" stop-color="#00e7f0"/></linearGradient><linearGradient id="New_Gradient_Swatch_3-2" x1="33.003" x2="30.75" xlink:href="#New_Gradient_Swatch_3" y1="65.079" y2="-.243"/><linearGradient id="New_Gradient_Swatch_3-3" x1="33.072" x2="30.819" xlink:href="#New_Gradient_Swatch_3" y1="65.077" y2="-.245"/><linearGradient id="New_Gradient_Swatch_3-4" x1="53.255" x2="51.002" xlink:href="#New_Gradient_Swatch_3" y1="64.381" y2="-.941"/><linearGradient id="New_Gradient_Swatch_3-5" x1="11.304" x2="9.052" xlink:href="#New_Gradient_Swatch_3" y1="65.827" y2=".505"/><linearGradient id="New_Gradient_Swatch_3-6" x1="8.475" x2="6.222" xlink:href="#New_Gradient_Swatch_3" y1="65.925" y2=".603"/><linearGradient id="New_Gradient_Swatch_3-7" x1="57.806" x2="55.554" xlink:href="#New_Gradient_Swatch_3" y1="64.224" y2="-1.098"/><linearGradient id="New_Gradient_Swatch_3-8" x1="53.323" x2="51.071" xlink:href="#New_Gradient_Swatch_3" y1="64.378" y2="-.944"/><linearGradient id="New_Gradient_Swatch_3-9" x1="11.925" x2="9.672" xlink:href="#New_Gradient_Swatch_3" y1="65.806" y2=".484"/><linearGradient id="New_Gradient_Swatch_3-10" x1="54.356" x2="52.104" xlink:href="#New_Gradient_Swatch_3" y1="64.343" y2="-.979"/><linearGradient id="New_Gradient_Swatch_3-11" x1="12.958" x2="10.706" xlink:href="#New_Gradient_Swatch_3" y1="65.77" y2=".448"/><linearGradient id="New_Gradient_Swatch_3-12" x1="32.279" x2="30.027" xlink:href="#New_Gradient_Swatch_3" y1="65.104" y2="-.218"/><linearGradient id="New_Gradient_Swatch_3-13" x1="54.977" x2="52.724" xlink:href="#New_Gradient_Swatch_3" y1="64.321" y2="-1.001"/><linearGradient id="New_Gradient_Swatch_3-14" x1="13.026" x2="10.774" xlink:href="#New_Gradient_Swatch_3" y1="65.768" y2=".446"/><linearGradient id="New_Gradient_Swatch_3-15" x1="34.002" x2="31.749" xlink:href="#New_Gradient_Swatch_3" y1="65.045" y2="-.277"/><g id="Firewall"><path d="m32 50a18 18 0 1 1 18-18 18.021 18.021 0 0 1 -18 18zm0-34a16 16 0 1 0 16 16 16.019 16.019 0 0 0 -16-16z" fill="url(#New_Gradient_Swatch_3)"/><path d="m39 28v-3a7 7 0 0 0 -14 0v3a3 3 0 0 0 -3 3v10a3 3 0 0 0 3 3h14a3 3 0 0 0 3-3v-10a3 3 0 0 0 -3-3zm-12-3a5 5 0 0 1 10 0v3h-1v-3a4 4 0 0 0 -8 0v3h-1zm7 3h-4v-3a2 2 0 0 1 4 0zm6 13a1 1 0 0 1 -1 1h-14a1 1 0 0 1 -1-1v-10a1 1 0 0 1 1-1h14a1 1 0 0 1 1 1z" fill="url(#New_Gradient_Swatch_3-2)"/><path d="m32 31a2.993 2.993 0 0 0 -1 5.816v3.184a1 1 0 0 0 2 0v-3.184a2.993 2.993 0 0 0 -1-5.816zm0 4a1 1 0 1 1 1-1 1 1 0 0 1 -1 1z" fill="url(#New_Gradient_Swatch_3-3)"/><path d="m61 62h-16a1 1 0 0 1 -1-1v-8a1 1 0 0 1 1-1h16a1 1 0 0 1 1 1v8a1 1 0 0 1 -1 1zm-15-2h14v-6h-14z" fill="url(#New_Gradient_Swatch_3-4)"/><path d="m19 62h-16a1 1 0 0 1 -1-1v-8a1 1 0 0 1 1-1h16a1 1 0 0 1 1 1v8a1 1 0 0 1 -1 1zm-15-2h14v-6h-14z" fill="url(#New_Gradient_Swatch_3-5)"/><path d="m11.61 38h-8.61a1 1 0 0 1 -1-1v-10a1 1 0 0 1 1-1h8.61a1 1 0 0 1 .97 1.243 19.8 19.8 0 0 0 0 9.514 1 1 0 0 1 -.97 1.243zm-7.61-2h6.369a21.865 21.865 0 0 1 0-8h-6.369z" fill="url(#New_Gradient_Swatch_3-6)"/><path d="m61 38h-8.61a1 1 0 0 1 -.97-1.243 19.8 19.8 0 0 0 0-9.514 1 1 0 0 1 .97-1.243h8.61a1 1 0 0 1 1 1v10a1 1 0 0 1 -1 1zm-7.369-2h6.369v-8h-6.369a21.865 21.865 0 0 1 0 8z" fill="url(#New_Gradient_Swatch_3-7)"/><path d="m61 50h-16.69a1 1 0 0 1 -.587-1.81 20.143 20.143 0 0 0 6.344-7.62 1 1 0 0 1 .9-.57h10.033a1 1 0 0 1 1 1v8a1 1 0 0 1 -1 1zm-13.919-2h12.919v-6h-8.409a22.187 22.187 0 0 1 -4.51 6z" fill="url(#New_Gradient_Swatch_3-8)"/><path d="m19.69 50h-16.69a1 1 0 0 1 -1-1v-8a1 1 0 0 1 1-1h10.03a1 1 0 0 1 .9.57 20.143 20.143 0 0 0 6.344 7.62 1 1 0 0 1 -.584 1.81zm-15.69-2h12.919a22.187 22.187 0 0 1 -4.51-6h-8.409z" fill="url(#New_Gradient_Swatch_3-9)"/><path d="m61 24h-10.03a1 1 0 0 1 -.9-.57 20.143 20.143 0 0 0 -6.344-7.62 1 1 0 0 1 .584-1.81h16.69a1 1 0 0 1 1 1v8a1 1 0 0 1 -1 1zm-9.409-2h8.409v-6h-12.919a22.187 22.187 0 0 1 4.51 6z" fill="url(#New_Gradient_Swatch_3-10)"/><path d="m13.03 24h-10.03a1 1 0 0 1 -1-1v-8a1 1 0 0 1 1-1h16.69a1 1 0 0 1 .587 1.81 20.143 20.143 0 0 0 -6.344 7.62 1 1 0 0 1 -.903.57zm-9.03-2h8.409a22.187 22.187 0 0 1 4.51-6h-12.919z" fill="url(#New_Gradient_Swatch_3-11)"/><path d="m41 62h-18a1 1 0 0 1 -1-1v-8a1 1 0 0 1 1-1h18a1 1 0 0 1 1 1v8a1 1 0 0 1 -1 1zm-17-2h16v-6h-16z" fill="url(#New_Gradient_Swatch_3-12)"/><path d="m61 12h-16a1 1 0 0 1 -1-1v-8a1 1 0 0 1 1-1h16a1 1 0 0 1 1 1v8a1 1 0 0 1 -1 1zm-15-2h14v-6h-14z" fill="url(#New_Gradient_Swatch_3-13)"/><path d="m19 12h-16a1 1 0 0 1 -1-1v-8a1 1 0 0 1 1-1h16a1 1 0 0 1 1 1v8a1 1 0 0 1 -1 1zm-15-2h14v-6h-14z" fill="url(#New_Gradient_Swatch_3-14)"/><path d="m41 12h-18a1 1 0 0 1 -1-1v-8a1 1 0 0 1 1-1h18a1 1 0 0 1 1 1v8a1 1 0 0 1 -1 1zm-17-2h16v-6h-16z" fill="url(#New_Gradient_Swatch_3-15)"/></g></svg>