<?xml version="1.0" encoding="iso-8859-1"?>
<!-- Generator: Adobe Illustrator 19.0.0, SVG Export Plug-In . SVG Version: 6.00 Build 0)  -->
<svg version="1.1" id="Capa_1" xmlns="http://www.w3.org/2000/svg" xmlns:xlink="http://www.w3.org/1999/xlink" x="0px" y="0px"
	 viewBox="0 0 512 512" style="enable-background:new 0 0 512 512;" xml:space="preserve">
<linearGradient id="SVGID_1_" gradientUnits="userSpaceOnUse" x1="0" y1="258" x2="512" y2="258" gradientTransform="matrix(1 0 0 -1 0 514)">
	<stop  offset="0" style="stop-color:#00F2FE"/>
	<stop  offset="0.021" style="stop-color:#03EFFE"/>
	<stop  offset="0.293" style="stop-color:#24D2FE"/>
	<stop  offset="0.554" style="stop-color:#3CBDFE"/>
	<stop  offset="0.796" style="stop-color:#4AB0FE"/>
	<stop  offset="1" style="stop-color:#4FACFE"/>
</linearGradient>
<path style="fill:url(#SVGID_1_);" d="M512,452c0,11.046-8.954,20-20,20H286c-11.046,0-20-8.954-20-20c0-11.028-8.972-20-20-20
	s-20,8.972-20,20s8.972,20,20,20c11.046,0,20,8.954,20,20s-8.954,20-20,20c-26.073,0-48.303-16.722-56.56-40H20
	c-11.046,0-20-8.954-20-20s8.954-20,20-20h169.44c6.036-17.018,19.541-30.524,36.56-36.56v-34.43l-145.996,0.027
	c-44.116,0-80.004-35.888-80.004-80V70C0,31.401,31.402,0,70,0h58c32.009,0,59.069,21.597,67.375,50.982l153.61,0.002
	c17.951,0,34.917,5.813,49.065,16.811c8.721,6.778,10.295,19.344,3.516,28.064c-6.779,8.72-19.344,10.295-28.065,3.516
	c-7.062-5.489-15.54-8.391-24.516-8.391L178,90.982c-11.046,0-20-8.954-20-20V70c0-16.542-13.458-30-30-30H70
	c-16.542,0-30,13.458-30,30v63.003L298,133c11.046,0,20,8.954,20,20s-8.954,20-20,20l-258,0.003v108.034c0,22.056,17.944,40,40,40
	l165.947-0.03c10.659-0.002,19.347,8.341,19.946,18.85c0.07,0.68,0.107,1.37,0.107,2.069v53.515
	c17.018,6.036,30.524,19.541,36.56,36.56H492C503.046,432,512,440.954,512,452z M512,258v100c0,11.046-8.954,20-20,20H324
	c-11.046,0-20-8.954-20-20V258c0-25.533,19.242-46.643,43.983-49.625V192c0-32.525,26.916-58.986,60-58.986s60,26.461,60,58.986
	v16.371C492.741,211.338,512,232.456,512,258z M387.983,192v16h40v-16c0-10.469-8.972-18.986-20-18.986S387.983,181.531,387.983,192
	z M472,258c0-5.514-4.486-10-10-10H354c-5.514,0-10,4.486-10,10v80h128V258z"/>
<g>
</g>
<g>
</g>
<g>
</g>
<g>
</g>
<g>
</g>
<g>
</g>
<g>
</g>
<g>
</g>
<g>
</g>
<g>
</g>
<g>
</g>
<g>
</g>
<g>
</g>
<g>
</g>
<g>
</g>
</svg>
