<svg id="_x33_0" enable-background="new 0 0 64 64" height="512" viewBox="0 0 64 64" width="512" xmlns="http://www.w3.org/2000/svg" xmlns:xlink="http://www.w3.org/1999/xlink"><linearGradient id="SVGID_1_" gradientUnits="userSpaceOnUse" x1="32" x2="32" y1="63" y2="1"><stop offset="0" stop-color="#9f2fff"/><stop offset="1" stop-color="#0bb1d3"/></linearGradient><path d="m45 13h2v2h-2zm18 28.059c0 2.122-.623 4.177-1.8 5.944l-.2.3v15.697h-26v-7.657c-2.046-.991-3.894-2.397-5.402-4.179l-4.598-5.434v13.929l-3.759 1.611c-2.678 1.148-5.513 1.73-8.427 1.73-3.303 0-6.611-.781-9.567-2.258l-2.247-1.124v-53.005l2.733.911c5.473 1.826 11.449 1.955 17.001.37l4.266-1.22v28.326c2.058 0 3.757 1.562 3.976 3.562l5.848 5.848c.152.152.314.291.475.431l.336-2.353c.669-4.682 3.365-8.75 7.229-11.221l-.438-2.627c-.058.024-.109.06-.169.082l-5.153 1.933c-.613.229-1.255.345-1.908.345-2.343 0-4.415-1.493-5.155-3.715l-.835-2.506c-.137-.409-.206-.835-.206-1.266v-10.513c0-1.103.897-2 2-2h.051c.507-5.598 5.221-10 10.949-10h4c6.065 0 11 4.935 11 11v1.528c0 3.081-.728 6.165-2.105 8.919l-.277.553h-2.465l.776 5.429 5.5 3.851c2.863 2.004 4.571 5.285 4.571 8.779zm-60-16.059h14v-10h-14zm20-15.674-1.716.49c-5.939 1.696-12.33 1.556-18.183-.395l-.101-.034v3.613h16v14h-16v31.382l1.141.571c2.68 1.339 5.679 2.047 8.673 2.047 2.642 0 5.212-.527 7.639-1.568l2.547-1.091zm10.059 1.674h8.967c.913-1.207 2.347-2 3.974-2 2.757 0 5 2.243 5 5 0 2.414-1.721 4.434-4 4.899v2.101h6.37c1.068-2.334 1.63-4.905 1.63-7.472v-1.528c0-4.962-4.038-9-9-9h-4c-4.624 0-8.441 3.507-8.941 8zm15.941 3c0-1.654-1.346-3-3-3s-3 1.346-3 3 1.346 3 3 3 3-1.346 3-3zm-18 8.795 11.867-2.225c.943-.177 1.685-.849 1.986-1.715-2.204-.522-3.853-2.495-3.853-4.855 0-.342.035-.677.101-1h-10.101zm13.105 1.758 1.789.895c-.402.804-.961 1.498-1.628 2.072l.455 2.732c.755-.352 1.54-.652 2.356-.885l3.809-1.088-.753-5.279h-3.133c-.86 0-1.588-.548-1.87-1.31-.549.409-1.185.713-1.895.846l-11.924 2.236.627 1.88c.468 1.405 1.777 2.348 3.258 2.348.413 0 .819-.074 1.207-.219l5.153-1.933c1.112-.417 2.018-1.232 2.549-2.295zm-2.664 10.447h3.542c1.333 0 2.519-.895 2.885-2.176l.499-1.746-.739.211c-2.4.686-4.514 1.989-6.187 3.711zm.741 20c3.51 0 6.897-1.272 9.538-3.583l2.724-2.384-5.58-3.348c-2.037 2.11-4.823 3.315-7.786 3.315-2.896 0-5.62-1.128-7.668-3.176l-6.41-6.41v-.414c0-1.103-.897-2-2-2v5.634l6.124 7.238c2.758 3.259 6.789 5.128 11.058 5.128zm16.818-4.697-.697 1.045-2.057-1.234-3.209 2.808c-3.006 2.63-6.861 4.078-10.855 4.078-1.784 0-3.529-.292-5.182-.839v4.839h22zm2-9.244c0-2.841-1.39-5.511-3.718-7.14l-5.466-3.826-1.185.339-.84 2.942c-.611 2.135-2.588 3.626-4.808 3.626h-5.159c-1.136 1.705-1.909 3.666-2.21 5.771l-.472 3.301c1.209.602 2.546.928 3.936.928 2.259 0 4.394-.858 6.02-2.375l-.452-.271 2.697-4.72c1.247-2.182 3.012-4.072 5.103-5.466l1.109 1.664c-1.834 1.223-3.382 2.881-4.476 4.794l-1.725 3.02 8.343 5.006 1.839-2.759c.958-1.436 1.464-3.108 1.464-4.834zm-5-2.059c1.654 0 3 1.346 3 3s-1.346 3-3 3-3-1.346-3-3 1.346-3 3-3zm0 2c-.551 0-1 .449-1 1s.449 1 1 1 1-.449 1-1-.449-1-1-1z" fill="url(#SVGID_1_)"/></svg>